<?xml version="1.0" standalone="no"?>
<!DOCTYPE svg PUBLIC "-//W3C//DTD SVG 20010904//EN"
 "http://www.w3.org/TR/2001/REC-SVG-20010904/DTD/svg10.dtd">
<svg version="1.0" xmlns="http://www.w3.org/2000/svg"
 width="500.000000pt" height="500.000000pt" viewBox="0 0 500.000000 500.000000"
 preserveAspectRatio="xMidYMid meet">
<metadata>
Created by potrace 1.14, written by Peter Selinger 2001-2017
</metadata>
<g transform="translate(0.000000,500.000000) scale(0.100000,-0.100000)"
fill="#000000" stroke="none">
<path d="M2280 4755 c-117 -30 -257 -99 -341 -169 -58 -48 -1106 -1077 -1409
-1384 -69 -70 -147 -160 -174 -200 -136 -205 -182 -478 -121 -718 30 -118 88
-243 149 -323 39 -50 1308 -1342 1325 -1349 4 -1 13 32 20 73 7 42 27 136 46
208 l33 132 -97 100 c-53 55 -305 311 -561 570 -489 494 -518 528 -558 655
-12 38 -17 87 -16 160 0 92 4 113 29 174 15 37 45 94 66 125 22 33 338 353
771 781 696 688 737 727 808 762 153 75 290 87 433 35 108 -39 170 -84 299
-214 67 -68 122 -122 124 -120 1 1 -11 65 -27 142 -16 77 -43 205 -60 285 -16
80 -32 152 -35 161 -9 33 -158 95 -296 124 -111 24 -294 19 -408 -10z"/>
<path d="M3294 4503 c16 -52 31 -244 31 -408 0 -262 -14 -353 -73 -492 -60
-142 -135 -235 -248 -309 -59 -39 -72 -60 -58 -92 4 -9 6 -20 6 -25 -1 -4 14
-49 34 -100 78 -198 134 -359 129 -367 -3 -5 -1 -12 5 -15 6 -4 8 -15 5 -25
-3 -10 -2 -21 4 -24 5 -4 5 -21 -1 -46 -27 -105 -176 -111 -228 -10 -28 55
-26 172 6 374 28 178 26 221 -11 238 -25 11 -25 11 -90 -37 -47 -34 -212 -62
-450 -75 -262 -15 -407 -71 -551 -215 -78 -77 -162 -203 -150 -224 4 -5 22 -5
47 0 22 5 44 7 49 4 5 -3 11 -1 14 4 7 10 105 16 286 15 194 0 255 -10 346
-54 76 -37 130 -89 160 -154 20 -44 23 -62 20 -146 -4 -116 -10 -144 -47 -237
-52 -131 -102 -220 -261 -463 -69 -104 -165 -301 -213 -435 -20 -55 -36 -101
-35 -103 3 -4 -12 -66 -18 -76 -3 -6 -6 -19 -7 -30 -1 -12 -8 -59 -15 -105
-27 -175 16 -515 45 -352 9 54 72 217 126 327 114 232 226 371 634 784 176
179 352 366 390 415 38 50 72 92 75 95 13 10 88 127 123 190 34 62 115 248
122 280 2 8 4 15 5 15 1 0 3 7 5 15 2 8 13 49 25 90 77 262 105 475 97 742 -6
212 -28 344 -88 528 -40 123 -38 119 -39 125 -2 18 -91 207 -110 235 -10 14
-32 53 -50 88 -32 62 -58 93 -46 55z"/>
<path d="M2470 4164 c-8 -3 -22 -8 -30 -11 -18 -7 -27 -10 -39 -12 -5 0 -35
-20 -67 -44 -54 -39 -131 -134 -138 -168 -2 -8 -7 -23 -12 -34 -12 -26 -12
-254 0 -280 5 -11 10 -22 11 -25 0 -3 11 -25 24 -48 33 -65 99 -125 177 -163
67 -33 73 -34 189 -34 116 0 122 1 189 34 87 42 145 100 187 187 33 67 34 73
34 189 0 116 -1 122 -34 190 -38 76 -107 151 -168 180 -21 10 -38 16 -39 14 0
-2 -9 3 -18 10 -13 11 -51 16 -134 18 -65 1 -124 0 -132 -3z"/>
<path d="M3760 3508 c0 -227 -14 -409 -41 -548 -11 -58 -22 -114 -23 -125 -2
-11 -8 -33 -15 -48 -6 -16 -11 -34 -11 -41 0 -41 -102 -274 -178 -406 -129
-224 -251 -382 -515 -663 -132 -140 -293 -377 -382 -562 -113 -234 -165 -435
-164 -633 1 -156 16 -196 34 -90 11 69 76 252 122 343 55 111 169 282 263 395
79 94 359 407 430 480 167 171 320 391 391 561 44 107 94 285 119 429 28 159
39 559 21 762 -14 150 -37 317 -45 326 -3 3 -6 -78 -6 -180z"/>
<path d="M4050 3596 c7 -10 11 -51 10 -123 -1 -59 -1 -111 -1 -116 1 -4 2 -68
4 -141 l2 -134 118 -121 c194 -200 238 -287 238 -476 0 -109 -8 -144 -52 -235
l-41 -85 -708 -703 c-745 -739 -785 -783 -860 -944 -48 -103 -72 -224 -54
-271 13 -35 207 45 329 135 80 60 1513 1477 1569 1553 62 82 132 220 159 313
19 65 22 101 22 237 0 136 -3 171 -23 238 -23 81 -90 221 -140 295 -34 51
-559 592 -574 592 -6 0 -6 -6 2 -14z"/>
</g>
</svg>
