<?xml version="1.0" standalone="no"?>
<!DOCTYPE svg PUBLIC "-//W3C//DTD SVG 20010904//EN"
 "http://www.w3.org/TR/2001/REC-SVG-20010904/DTD/svg10.dtd">
<svg version="1.0" xmlns="http://www.w3.org/2000/svg"
 width="1000.000000pt" height="1000.000000pt" viewBox="0 0 1000.000000 1000.000000"
 preserveAspectRatio="xMidYMid meet">
<metadata>
Created by potrace 1.14, written by Peter Selinger 2001-2017
</metadata>
<g transform="translate(0.000000,1000.000000) scale(0.100000,-0.100000)"
fill="#000000" stroke="none">
<path d="M4995 7840 c-4 -6 -13 -9 -21 -6 -8 3 -14 1 -14 -5 0 -6 -10 -10 -22
-9 -37 3 -50 1 -44 -9 3 -5 -6 -17 -20 -26 -18 -12 -24 -13 -19 -4 4 8 -3 3
-14 -11 -11 -14 -21 -21 -21 -16 0 5 -13 -8 -30 -29 -16 -21 -30 -35 -30 -31
0 4 -6 1 -14 -6 -8 -7 -12 -16 -9 -20 2 -5 -1 -8 -7 -8 -6 0 -8 -4 -5 -10 3
-5 3 -10 -2 -10 -12 0 -31 -50 -33 -85 -8 -205 -2 -238 50 -293 8 -9 14 -17
13 -19 -8 -10 0 -22 17 -28 11 -3 20 -10 20 -15 0 -17 51 -60 62 -54 7 4 8 2
4 -4 -4 -7 -1 -12 9 -12 9 0 13 -4 10 -10 -3 -5 -4 -10 -1 -10 2 0 12 -3 22
-7 13 -5 15 -3 9 8 -7 11 -6 12 7 2 8 -7 19 -9 23 -5 5 4 5 1 1 -5 -5 -9 1
-13 19 -13 14 0 24 -4 21 -9 -7 -10 20 -9 30 2 4 4 14 1 22 -6 13 -9 14 -9 8
1 -4 6 -2 12 3 12 6 0 11 -6 11 -12 0 -9 3 -10 8 -2 4 6 16 9 27 7 47 -9 64
-10 60 -3 -5 9 21 23 47 25 10 1 24 8 32 14 8 7 21 9 27 5 7 -4 9 -3 6 2 -3 6
14 26 38 45 24 18 44 39 45 44 0 6 9 16 19 22 11 7 25 28 32 48 7 19 16 35 20
35 5 0 6 9 4 20 -2 11 -1 20 3 20 9 0 7 174 -2 189 -4 6 -4 11 0 11 3 0 1 7
-6 15 -10 12 -10 15 0 15 10 0 10 3 0 15 -7 8 -15 13 -19 11 -4 -3 -7 4 -8 14
-2 22 -32 70 -44 70 -5 0 -9 7 -9 15 0 8 -5 15 -11 15 -6 0 -20 11 -31 26 -11
14 -23 23 -26 20 -3 -3 -11 3 -19 14 -8 11 -25 20 -39 20 -17 0 -23 4 -18 12
5 8 0 9 -14 6 -12 -4 -22 -2 -22 2 0 4 -9 6 -20 3 -12 -3 -20 0 -20 6 0 7 -5
9 -12 4 -19 -11 -38 -12 -38 -2 0 6 -7 6 -18 0 -13 -7 -22 -7 -29 0 -8 8 -13
7 -18 -1z"/>
<path d="M4673 6898 c5 -13 1 -16 -20 -12 -14 3 -31 0 -39 -7 -8 -6 -14 -8
-14 -3 0 4 -7 -1 -16 -12 -15 -19 -16 -19 -10 1 6 20 6 20 -9 1 -11 -14 -15
-16 -15 -5 0 12 -2 12 -10 -1 -9 -13 -10 -13 -10 0 0 13 -1 13 -10 0 -9 -13
-10 -13 -10 0 -1 12 -4 11 -15 -4 -7 -10 -18 -15 -24 -11 -6 3 -11 0 -11 -7 0
-10 -2 -10 -9 1 -5 7 -11 9 -14 5 -3 -5 -30 -9 -61 -9 -42 0 -55 -3 -52 -12 3
-7 1 -13 -5 -13 -6 0 -8 -4 -4 -9 3 -5 -4 -12 -15 -16 -11 -3 -20 -14 -20 -23
0 -14 -2 -14 -9 -3 -5 8 -16 11 -24 8 -8 -3 -19 -1 -25 5 -6 6 -12 6 -16 -1
-5 -8 -13 -8 -27 -1 -12 7 -19 7 -19 1 0 -6 -6 -8 -14 -5 -8 3 -17 0 -21 -5
-3 -6 -11 -8 -17 -5 -6 4 -8 3 -5 -3 9 -14 -22 -39 -60 -49 -13 -4 -21 -10
-18 -14 3 -5 1 -11 -5 -15 -14 -9 -50 4 -47 17 1 6 -4 13 -12 16 -8 2 -11 0
-7 -6 3 -5 -5 -13 -18 -16 -14 -3 -31 -12 -38 -19 -22 -22 -88 -59 -88 -50 0
4 -5 0 -11 -9 -5 -10 -17 -18 -24 -18 -8 0 -15 -4 -15 -10 0 -5 -7 -6 -17 -3
-11 4 -14 3 -9 -5 4 -7 1 -12 -7 -12 -8 0 -18 -7 -21 -16 -3 -8 -10 -13 -14
-10 -5 3 -15 -4 -22 -15 -8 -10 -20 -19 -27 -19 -7 0 -13 -5 -13 -11 0 -5 -4
-7 -10 -4 -5 3 -10 1 -10 -4 0 -6 -7 -11 -16 -11 -8 0 -13 -4 -9 -9 3 -5 -3
-12 -14 -16 -11 -3 -22 -13 -25 -21 -3 -8 -10 -13 -15 -9 -5 3 -16 -4 -24 -15
-7 -11 -17 -17 -20 -13 -4 3 -7 -1 -7 -10 0 -9 -4 -17 -8 -17 -5 0 -29 -19
-54 -42 -38 -36 -44 -46 -36 -64 5 -11 23 -28 39 -38 16 -9 29 -22 29 -27 0
-10 22 -37 69 -85 13 -13 21 -24 17 -24 -4 0 -1 -7 8 -15 8 -8 20 -15 26 -15
6 0 8 -5 4 -11 -3 -6 6 -22 21 -35 16 -14 24 -28 19 -35 -4 -8 -3 -9 4 -5 7 4
12 2 12 -4 0 -6 5 -8 10 -5 6 3 10 -1 10 -10 0 -9 12 -27 26 -42 15 -15 23
-32 19 -41 -4 -12 -3 -13 10 -2 12 10 15 10 15 -2 0 -17 50 -74 61 -71 4 1 10
-4 13 -13 4 -10 2 -13 -7 -8 -9 6 -9 5 0 -8 7 -8 10 -18 6 -21 -3 -4 1 -7 10
-7 9 0 17 -5 17 -11 0 -5 4 -7 10 -4 6 3 7 -1 4 -9 -4 -11 0 -16 10 -16 9 0
15 -3 14 -7 -1 -5 2 -18 6 -31 5 -16 11 -20 19 -13 9 7 12 2 13 -16 1 -15 17
-38 40 -59 25 -23 32 -33 19 -29 -18 6 -18 5 -2 -5 9 -6 15 -15 12 -21 -3 -5
0 -7 7 -4 19 7 42 -46 25 -58 -8 -6 -7 -7 5 -4 9 3 22 0 28 -8 8 -10 7 -16 -7
-24 -17 -10 -17 -10 1 -11 11 0 16 -3 13 -7 -4 -3 2 -12 13 -20 11 -8 20 -20
20 -26 0 -7 9 -19 19 -27 11 -7 18 -17 15 -22 -3 -4 6 -19 20 -32 14 -13 26
-28 26 -34 0 -6 9 -13 19 -17 11 -3 18 -12 15 -19 -3 -7 3 -22 13 -31 10 -10
19 -21 19 -24 8 -32 18 -50 26 -44 6 3 9 0 6 -8 -4 -12 23 -62 52 -96 5 -7 10
-19 10 -28 0 -8 4 -15 9 -15 5 0 12 -8 15 -17 13 -34 31 -63 39 -63 4 0 6 -4
2 -9 -3 -5 1 -16 9 -24 8 -8 12 -17 9 -21 -4 -3 -1 -6 6 -6 7 0 9 -4 6 -10 -3
-5 -1 -10 5 -10 7 0 10 -7 6 -15 -3 -10 1 -15 11 -15 9 0 13 -3 10 -7 -4 -3
-2 -12 4 -20 6 -7 8 -13 3 -13 -5 0 2 -7 14 -16 12 -8 20 -20 17 -25 -4 -5 -2
-9 2 -9 5 0 9 -10 10 -22 1 -11 8 -25 15 -29 7 -5 9 -9 5 -9 -4 0 -2 -10 5
-22 7 -13 11 -26 10 -30 -1 -5 3 -8 9 -8 6 0 9 -7 5 -15 -3 -8 -1 -15 4 -15 6
0 10 -7 10 -15 0 -8 5 -15 10 -15 6 0 10 -6 8 -12 -3 -16 49 -120 65 -130 9
-6 9 -8 0 -8 -6 0 -9 -9 -6 -20 3 -11 9 -20 13 -20 8 0 21 -29 26 -60 2 -8 8
-16 13 -18 6 -2 11 -14 11 -26 0 -12 4 -26 9 -32 7 -7 46 -105 55 -139 1 -5 8
-21 14 -35 15 -37 26 -64 28 -75 1 -5 3 -13 4 -17 5 -16 8 -28 9 -44 0 -8 5
-13 9 -10 7 4 12 -26 15 -81 0 -7 4 -13 7 -13 7 0 19 -40 26 -89 1 -13 7 -27
11 -30 5 -3 10 -21 11 -40 2 -19 7 -40 12 -46 5 -6 10 -35 12 -65 2 -30 8 -58
13 -62 6 -4 11 -12 11 -18 1 -5 2 -11 3 -12 1 -2 4 -27 6 -57 2 -29 8 -58 14
-64 6 -6 11 -50 11 -104 0 -68 3 -93 13 -93 8 0 7 -4 -3 -10 -8 -5 -10 -10 -4
-10 16 0 33 21 27 36 -3 8 -1 14 4 14 5 0 10 6 11 13 1 6 4 35 7 62 8 85 16
138 22 148 3 5 7 19 8 31 4 36 5 37 14 31 6 -3 10 3 10 12 2 53 6 73 13 73 4
0 8 6 8 14 0 8 6 17 13 19 9 4 8 6 -2 6 -11 1 -11 4 -1 16 7 8 10 15 6 15 -4
0 1 11 10 25 9 14 14 34 11 44 -3 12 1 22 10 25 8 3 12 10 8 16 -3 5 -1 17 4
27 25 48 41 94 36 103 -3 5 1 7 9 4 11 -4 13 0 9 15 -3 13 -1 21 8 21 7 0 9 3
6 7 -4 3 0 17 9 31 11 17 12 22 3 17 -11 -6 -12 -5 -1 6 6 7 12 19 12 26 0 8
9 23 20 35 10 12 17 25 14 29 -3 5 2 19 10 31 9 12 16 29 16 36 0 7 7 20 15
29 8 8 12 19 9 24 -3 6 2 19 11 29 9 10 14 23 11 28 -3 5 3 18 12 28 10 10 26
39 36 64 10 25 23 51 29 58 6 8 13 23 14 35 2 12 11 29 20 39 9 11 18 26 19
35 2 9 8 19 14 23 7 4 11 9 9 11 -5 7 35 89 43 89 4 0 8 6 8 13 0 18 28 75 41
82 5 4 9 15 9 26 0 11 5 17 10 14 10 -6 13 3 13 37 0 10 4 15 8 12 5 -3 9 2 9
10 0 8 6 19 14 23 7 4 21 25 31 46 9 20 22 37 27 37 5 0 7 4 4 9 -3 4 1 17 9
27 8 10 15 26 15 35 0 8 9 25 19 36 11 12 18 23 15 26 -2 2 2 10 11 17 8 7 15
18 15 24 0 6 11 24 25 39 14 15 22 27 18 27 -4 0 -1 5 7 10 11 7 11 10 2 10
-10 0 -10 3 0 14 7 8 16 12 21 9 4 -2 7 5 7 16 0 11 6 26 13 33 7 7 16 21 20
31 3 9 11 17 18 17 6 0 9 6 6 13 -6 15 18 39 29 29 5 -4 3 0 -4 10 -14 18 0
34 20 22 7 -4 8 -3 4 4 -4 7 -3 12 3 12 6 0 8 6 5 14 -3 7 2 16 10 19 10 4 13
13 9 23 -4 11 -2 15 4 11 13 -8 36 17 25 27 -4 4 2 14 12 22 11 8 16 14 11 14
-5 0 1 7 13 16 12 8 20 19 17 24 -3 5 2 16 11 24 9 9 13 23 10 31 -3 8 -2 14
2 13 4 -2 21 10 37 26 17 16 23 26 15 21 -8 -4 -1 7 15 26 17 18 21 27 10 19
-17 -12 -17 -10 3 11 12 14 22 30 22 36 0 6 7 14 16 17 8 3 13 10 10 15 -3 5
3 11 14 14 13 3 18 11 14 21 -4 10 2 19 19 27 14 6 23 17 21 24 -3 7 2 15 10
18 10 4 13 13 9 23 -4 11 -3 15 5 10 12 -7 44 33 36 46 -3 4 2 8 10 8 8 0 18
5 22 12 5 7 3 8 -5 3 -10 -5 -9 -2 0 13 7 12 17 18 22 15 5 -3 8 0 5 8 -2 7
11 28 29 46 18 19 33 38 33 43 0 6 5 10 10 10 6 0 10 7 10 15 0 9 7 18 15 21
8 4 15 12 15 20 0 8 5 14 12 14 6 0 9 3 5 6 -3 3 14 25 37 47 72 70 79 112 27
148 -19 13 -50 40 -69 59 -19 19 -38 34 -43 32 -5 -1 -9 2 -9 7 0 5 -13 14
-28 20 -15 6 -39 22 -54 34 -78 67 -127 101 -160 113 -10 3 -18 10 -18 14 0 4
-20 17 -45 30 -24 12 -43 26 -40 29 2 4 -5 8 -16 8 -10 1 -19 -2 -19 -6 0 -5
-12 -11 -27 -14 -27 -5 -39 3 -123 85 -15 15 -30 24 -34 21 -3 -4 -6 -2 -6 3
0 5 -8 10 -17 11 -10 1 -30 3 -46 6 -15 2 -29 1 -32 -2 -11 -19 -99 5 -91 24
2 7 -2 21 -9 32 -8 10 -15 14 -15 8 0 -5 -5 -3 -10 5 -9 13 -10 13 -10 0 0
-13 -1 -13 -10 0 -6 10 -10 11 -10 3 0 -7 -5 -13 -11 -13 -5 0 -7 4 -4 10 3 6
-1 7 -9 4 -9 -3 -13 -11 -9 -18 3 -6 -4 -2 -17 9 -14 12 -20 14 -15 5 7 -12 6
-13 -7 -3 -8 7 -19 9 -24 5 -4 -4 -3 0 3 8 10 13 2 15 -52 18 -34 1 -79 9 -99
17 -28 12 -36 12 -36 3 0 -9 -3 -8 -10 2 -6 10 -10 11 -10 3 0 -9 -7 -10 -26
-3 -32 12 -37 12 -29 0 3 -6 -1 -7 -9 -4 -9 3 -13 11 -9 18 4 6 -1 5 -10 -3
-14 -11 -17 -11 -17 0 0 10 -3 10 -8 3 -9 -15 -63 -15 -81 0 -12 9 -13 8 -7
-3 7 -10 3 -12 -14 -6 -17 5 -21 4 -16 -6 4 -8 0 -5 -8 5 -9 11 -16 15 -16 8
0 -6 -11 -11 -25 -10 -14 1 -25 6 -25 11 0 4 -5 5 -10 2 -6 -4 -8 -11 -5 -16
9 -14 -2 -11 -19 7 -9 8 -16 11 -16 6 0 -12 -68 -13 -75 -1 -8 12 -36 -1 -29
-15 3 -6 -1 -3 -9 7 -13 15 -15 15 -20 2 -5 -11 -12 -13 -31 -6 -13 6 -27 7
-30 4 -3 -3 -13 0 -23 8 -10 8 -14 9 -10 2 10 -16 -112 -15 -132 1 -12 9 -13
8 -8 -6z m-989 -984 c3 -8 2 -12 -4 -9 -6 3 -10 10 -10 16 0 14 7 11 14 -7z"/>
<path d="M2325 6263 c-18 -6 -36 -9 -39 -6 -3 4 -6 1 -6 -6 0 -7 -4 -10 -9 -7
-5 3 -14 -1 -21 -9 -6 -7 -18 -11 -26 -8 -7 3 -17 -2 -20 -11 -3 -9 -13 -16
-21 -16 -8 0 -11 -4 -8 -10 3 -5 2 -10 -4 -10 -12 0 -61 -47 -61 -59 0 -4 -14
-22 -31 -39 -17 -18 -29 -32 -25 -32 3 0 -2 -21 -12 -47 -10 -27 -17 -68 -16
-93 5 -132 9 -163 21 -176 8 -8 11 -14 7 -14 -3 0 -1 -6 5 -14 6 -8 10 -18 9
-23 -3 -8 47 -67 109 -127 47 -44 63 -58 63 -50 0 3 6 1 13 -5 8 -6 17 -8 20
-4 4 3 13 0 22 -7 17 -14 197 -21 233 -8 15 5 22 4 22 -5 0 -8 4 -7 10 3 5 8
10 11 10 6 0 -5 6 -3 13 3 8 6 17 8 20 4 4 -3 7 -1 7 6 0 7 14 17 31 23 16 6
28 13 25 16 -3 3 8 15 24 27 37 28 90 93 90 112 0 8 5 11 10 8 9 -6 14 10 13
42 -1 7 4 10 10 6 6 -4 8 0 4 10 -3 9 -2 19 4 22 5 4 9 55 8 116 -1 82 -4 113
-16 124 -8 8 -11 15 -7 15 3 0 1 7 -6 15 -7 9 -10 18 -7 22 4 3 -8 21 -26 39
-18 19 -37 39 -44 46 -34 37 -83 80 -95 82 -7 1 -25 10 -40 20 -16 10 -35 16
-43 12 -8 -3 -15 -2 -15 3 0 9 -5 10 -98 13 -40 2 -88 -2 -107 -9z"/>
<path d="M7500 6268 c-66 -11 -70 -12 -122 -37 -26 -13 -61 -39 -78 -57 -16
-19 -30 -32 -30 -29 0 3 -8 -3 -18 -12 -11 -10 -17 -21 -15 -25 2 -5 0 -8 -4
-8 -11 0 -34 -37 -39 -63 -2 -11 -9 -24 -16 -28 -8 -5 -13 -35 -14 -82 0 -40
-4 -79 -8 -85 -4 -7 -3 -12 3 -12 5 0 8 -11 7 -25 -2 -14 3 -36 10 -50 7 -14
8 -23 3 -19 -7 4 -7 -1 0 -15 7 -11 17 -21 24 -21 7 0 6 -4 -3 -10 -13 -8 -12
-10 3 -10 10 0 15 -4 12 -10 -3 -5 -2 -10 3 -10 5 0 12 -9 15 -21 4 -14 10
-18 18 -13 9 5 10 2 6 -10 -4 -9 -3 -15 2 -12 5 3 15 -2 22 -11 10 -12 10 -14
2 -9 -7 4 -13 3 -13 -2 0 -5 12 -15 28 -22 15 -8 39 -22 53 -32 14 -10 29 -15
32 -11 4 3 9 -1 13 -10 3 -9 12 -13 20 -10 8 3 14 1 14 -4 0 -11 261 -10 280
2 8 5 25 9 38 10 13 0 29 8 36 16 6 9 23 24 38 33 15 10 26 22 23 26 -3 5 4
11 15 15 11 3 20 9 20 13 0 4 14 22 30 41 17 18 30 42 30 52 0 10 4 20 8 23
11 6 15 56 13 161 -1 111 -2 119 -13 126 -5 3 -10 18 -12 32 -2 17 -25 49 -64
88 -34 34 -62 66 -62 72 0 6 -3 8 -6 4 -4 -3 -15 4 -26 16 -11 12 -16 16 -13
8 6 -10 2 -10 -16 2 -55 34 -162 49 -249 35z"/>
<path d="M3128 6018 c-10 -9 -20 -29 -24 -43 -3 -14 -13 -25 -21 -25 -8 0 -12
-4 -9 -9 3 -5 -1 -14 -9 -21 -8 -7 -15 -17 -15 -22 0 -9 -11 -25 -46 -62 -11
-13 -18 -28 -16 -34 2 -7 -1 -12 -6 -12 -5 0 -13 -11 -16 -25 -4 -14 -11 -25
-16 -25 -6 0 -10 -7 -10 -15 0 -8 -5 -15 -10 -15 -6 0 -10 -6 -9 -12 4 -22
-12 -48 -25 -41 -6 3 -8 3 -4 -2 10 -11 -11 -47 -23 -40 -5 4 -9 -8 -9 -25 0
-22 -4 -29 -12 -24 -7 4 -10 4 -6 -1 4 -4 -2 -30 -12 -59 -11 -28 -21 -60 -24
-71 -9 -42 -19 -65 -28 -65 -5 0 -6 -4 -3 -10 3 -5 2 -10 -3 -10 -8 0 -10 -6
-14 -50 -1 -11 -6 -20 -11 -20 -4 0 -6 -4 -2 -10 3 -5 1 -17 -4 -27 -13 -23
-25 -74 -22 -91 1 -8 -4 -24 -12 -36 -8 -12 -17 -43 -19 -70 -3 -26 -9 -51
-14 -55 -5 -3 -10 -24 -11 -46 -1 -22 -5 -69 -9 -105 -13 -117 -8 -610 6 -610
4 0 7 -20 9 -44 1 -25 4 -55 7 -68 4 -13 9 -43 13 -68 4 -25 12 -55 19 -66 6
-12 9 -24 5 -27 -3 -4 -2 -12 4 -19 5 -7 9 -27 9 -45 -1 -17 3 -31 9 -30 5 1
9 -15 9 -35 0 -21 4 -38 9 -38 6 0 8 -3 4 -6 -3 -4 1 -13 9 -21 8 -8 12 -19 9
-24 -4 -5 -1 -9 6 -9 7 0 10 -3 6 -6 -3 -4 3 -24 14 -46 11 -21 17 -43 14 -48
-3 -6 1 -10 9 -10 10 0 13 -7 10 -25 -2 -14 0 -25 6 -25 6 0 8 -4 5 -10 -3 -5
-2 -10 2 -10 5 0 17 -17 28 -37 10 -21 26 -46 34 -55 8 -10 11 -18 6 -18 -4 0
-2 -6 4 -14 17 -21 63 -109 67 -129 2 -11 12 -27 23 -37 12 -9 18 -20 14 -24
-3 -3 -2 -6 3 -6 6 0 19 -7 30 -16 10 -8 13 -13 7 -9 -7 3 -13 1 -13 -4 0 -6
5 -11 10 -11 6 0 10 -5 10 -10 0 -6 18 -29 39 -52 24 -24 38 -48 36 -59 -2
-10 -1 -18 3 -16 10 3 121 -111 114 -117 -3 -3 2 -6 11 -6 10 0 17 -7 17 -16
0 -8 4 -13 8 -10 5 3 15 -4 23 -16 13 -20 36 -43 87 -86 12 -11 22 -25 22 -32
0 -7 3 -11 6 -7 3 3 17 -5 31 -19 13 -13 28 -24 33 -24 6 0 9 -6 7 -12 -1 -7
4 -12 11 -11 6 2 12 -1 12 -7 0 -5 15 -16 33 -24 17 -7 42 -23 54 -35 12 -11
26 -21 32 -21 5 0 11 -7 15 -15 3 -8 11 -15 19 -15 7 0 23 -11 35 -25 19 -22
39 -30 64 -26 5 0 7 -5 5 -12 -1 -6 5 -12 13 -12 8 0 19 -6 23 -13 5 -7 12
-10 18 -7 5 4 9 1 9 -4 0 -6 7 -11 15 -11 8 0 15 -4 15 -10 0 -5 7 -10 15 -10
8 0 15 -5 15 -11 0 -5 4 -8 9 -4 5 3 15 -1 23 -8 7 -7 20 -12 28 -12 8 0 21
-7 27 -16 8 -10 23 -16 38 -15 13 2 22 -1 19 -5 -3 -5 4 -9 15 -9 10 0 21 -4
23 -9 2 -8 31 -16 71 -20 5 -1 6 -5 2 -10 -3 -6 4 -8 15 -6 12 2 23 -2 26 -9
3 -8 14 -12 25 -9 10 3 19 1 19 -5 0 -5 13 -9 29 -8 17 1 28 -2 25 -6 -3 -4
-2 -8 3 -9 4 0 17 -3 28 -5 11 -3 26 -6 33 -6 6 -1 12 -5 12 -10 0 -4 15 -8
34 -8 19 0 36 -5 38 -11 2 -6 20 -11 41 -12 20 0 37 -5 37 -9 0 -5 9 -4 20 2
15 8 20 8 20 -2 0 -9 3 -9 12 0 8 8 15 7 27 -6 17 -19 38 -21 60 -8 9 6 12 5
8 -1 -5 -7 22 -11 76 -12 45 0 100 -3 122 -6 22 -3 47 -6 55 -5 20 0 50 -1 80
-3 14 -1 31 2 38 7 8 5 12 4 12 -4 0 -10 3 -10 15 0 9 8 15 8 15 2 0 -7 10 -8
30 -2 21 6 30 5 30 -3 0 -7 4 -6 10 3 7 11 10 11 10 2 0 -7 4 -11 9 -7 19 11
77 13 90 2 12 -10 13 -9 7 2 -7 10 -3 12 13 6 14 -4 21 -2 21 7 0 10 3 9 10
-2 5 -8 10 -10 10 -4 0 15 60 24 60 10 0 -6 5 -4 10 4 5 8 10 11 10 5 0 -5 5
-4 11 2 6 6 18 9 26 6 8 -3 19 0 23 7 7 11 12 11 22 2 11 -9 20 -8 38 5 13 9
20 11 16 5 -11 -18 9 -15 24 3 7 9 19 14 27 11 7 -3 13 -1 13 3 0 5 9 7 19 4
10 -3 29 1 41 7 21 11 22 10 16 -6 -6 -16 -5 -16 16 2 13 10 26 24 30 29 4 6
8 6 8 1 0 -5 8 -2 17 5 14 12 16 12 9 -1 -4 -8 1 -6 11 5 12 13 30 20 55 20
20 -1 35 2 33 5 -4 7 65 35 78 32 4 -1 7 2 7 7 0 6 9 8 19 6 11 -2 22 3 25 11
3 9 10 13 15 9 5 -3 12 -1 16 5 4 6 11 8 16 5 5 -4 9 -2 9 2 0 5 20 17 44 28
24 11 42 23 40 27 -3 4 2 5 10 2 9 -4 16 -1 16 6 0 7 7 10 15 6 9 -3 15 1 15
11 0 12 3 13 15 3 12 -10 16 -9 21 3 3 9 15 19 27 23 12 4 34 20 50 35 16 16
33 27 38 23 5 -3 9 0 9 6 0 6 5 8 10 5 6 -3 10 1 10 9 0 9 7 16 16 16 8 0 12
5 9 10 -3 6 5 10 19 10 14 0 33 10 44 25 11 14 25 25 32 25 6 0 36 25 65 55
30 30 58 55 62 55 5 1 22 18 38 39 17 21 32 38 35 37 3 -1 17 11 32 26 15 15
25 28 23 28 -1 0 13 16 32 35 19 19 39 35 44 35 5 0 9 6 9 14 0 8 7 17 16 20
8 3 12 11 9 16 -4 6 -1 9 7 8 7 -2 12 3 10 10 -1 7 5 15 13 18 8 4 15 12 15
20 0 7 9 18 20 24 11 6 18 15 15 20 -3 5 4 14 16 20 11 7 19 14 16 16 -3 3 6
17 19 31 13 14 21 29 18 34 -3 5 0 9 5 9 6 0 10 3 9 8 -2 4 9 23 25 43 15 20
27 40 27 46 0 5 9 18 20 28 11 10 18 20 15 23 -5 6 26 64 40 74 5 4 6 10 2 14
-3 4 2 15 14 24 11 10 22 28 24 41 3 12 10 26 17 30 7 4 9 11 6 15 -4 3 0 21
9 38 10 17 18 34 19 39 1 4 3 10 4 15 1 4 2 10 1 15 0 4 4 7 9 7 5 0 9 3 8 8
-2 9 11 57 28 107 8 22 16 49 17 60 2 11 9 34 16 50 7 17 13 42 13 57 1 15 5
25 10 22 4 -3 8 2 8 11 0 10 5 13 12 9 7 -5 8 -3 3 7 -10 15 -12 50 -3 64 3 6
6 27 6 48 0 20 1 38 2 40 15 23 25 187 24 382 -3 270 -6 324 -19 329 -8 3 -12
26 -11 65 1 34 -2 61 -6 61 -3 0 -5 8 -3 18 1 9 -1 22 -5 27 -5 6 -11 27 -14
48 -5 29 -3 36 6 31 9 -6 9 -3 0 9 -8 9 -10 22 -6 28 4 8 3 9 -5 5 -12 -8 -18
3 -24 44 -2 14 -9 39 -16 55 -7 17 -12 30 -11 30 1 0 -5 16 -13 35 -8 19 -12
41 -10 48 3 6 0 12 -7 12 -6 0 -8 5 -5 10 3 6 1 10 -4 10 -6 0 -11 7 -11 15 0
8 -14 45 -32 82 -18 38 -31 71 -30 76 1 4 -3 7 -8 7 -6 0 -10 6 -10 13 0 7 -9
23 -21 36 -18 19 -25 35 -28 64 -1 4 -9 7 -18 8 -11 0 -13 3 -5 6 9 3 6 15
-10 46 -13 23 -29 46 -36 50 -7 5 -10 12 -7 17 3 4 -2 10 -10 13 -7 3 -22 21
-31 38 -20 40 -39 60 -48 52 -3 -4 -6 3 -6 15 0 46 -42 39 -80 -13 -14 -19
-31 -35 -39 -35 -8 0 -12 -3 -9 -6 4 -3 -2 -14 -13 -25 -11 -11 -16 -25 -12
-35 4 -12 3 -15 -5 -10 -7 4 -12 2 -12 -4 0 -6 -4 -8 -10 -5 -5 3 -7 0 -4 -8
2 -7 -3 -23 -13 -33 -10 -11 -14 -14 -9 -7 5 8 7 16 4 18 -3 3 -11 -7 -19 -23
-8 -15 -21 -34 -30 -42 -9 -8 -15 -23 -13 -33 2 -12 -2 -17 -12 -13 -8 3 -13
0 -11 -7 1 -7 -3 -11 -10 -10 -7 2 -10 -3 -7 -10 7 -19 -43 -70 -59 -61 -9 6
-9 4 1 -8 10 -13 10 -17 -3 -22 -8 -3 -15 -15 -15 -26 0 -11 -5 -20 -11 -20
-5 0 -7 -4 -4 -10 3 -5 3 -10 -2 -10 -4 0 -19 -10 -33 -21 -14 -11 -19 -18
-12 -14 18 9 15 -6 -5 -22 -12 -9 -13 -12 -3 -8 8 4 4 -3 -10 -15 -14 -12 -19
-18 -11 -14 9 5 12 3 7 -4 -4 -7 -15 -12 -24 -12 -13 0 -14 -2 -3 -9 9 -6 10
-11 2 -15 -6 -4 -11 -4 -12 1 0 7 -18 -31 -21 -47 -1 -3 -8 -11 -15 -18 -7 -8
-10 -18 -7 -24 4 -7 2 -8 -4 -4 -20 12 -35 -4 -20 -22 10 -12 10 -14 1 -8 -12
6 -18 -4 -14 -26 0 -4 -5 -5 -13 -2 -8 3 -17 0 -22 -7 -5 -8 -3 -10 5 -4 8 4
6 -4 -4 -18 -9 -14 -16 -29 -15 -32 1 -4 -2 -10 -6 -13 -4 -4 -4 0 0 8 4 8 0
6 -8 -4 -9 -11 -16 -26 -16 -34 0 -9 -6 -12 -16 -8 -8 3 -13 2 -9 -3 3 -5 -1
-12 -7 -15 -7 -3 -2 -3 12 0 l25 7 -25 -22 c-14 -13 -18 -20 -10 -16 10 4 9 2
-2 -8 -10 -8 -18 -19 -18 -26 0 -6 -5 -11 -10 -11 -6 0 -13 -8 -17 -17 -3 -10
-17 -33 -30 -51 -14 -18 -22 -40 -19 -48 3 -8 2 -13 -2 -10 -4 3 -13 -4 -20
-14 -17 -27 4 -37 30 -13 54 48 148 147 148 156 0 6 2 8 5 5 3 -3 27 16 53 43
26 27 53 49 61 49 8 0 12 3 9 6 -9 9 25 41 38 37 7 -3 26 8 42 24 48 44 60 53
72 53 6 0 8 5 5 10 -6 9 1 12 22 9 4 0 10 7 13 17 10 28 43 26 58 -3 6 -15 12
-35 12 -44 0 -10 4 -20 10 -24 5 -3 7 -12 3 -20 -3 -8 1 -15 8 -15 7 0 10 -2
7 -6 -3 -3 3 -27 13 -53 10 -27 15 -51 12 -55 -3 -3 1 -16 10 -30 9 -13 17
-46 19 -72 1 -27 6 -52 11 -55 4 -3 9 -16 10 -27 1 -12 5 -22 9 -22 4 0 3 -11
-2 -24 -5 -13 -6 -27 -2 -30 10 -11 10 -59 0 -80 -6 -12 -6 -16 0 -12 5 3 10
-15 11 -45 0 -28 3 -55 6 -60 4 -5 2 -9 -3 -9 -13 0 -10 -33 3 -42 7 -5 7 -8
0 -8 -6 0 -10 -36 -9 -90 0 -59 -3 -90 -10 -90 -7 0 -7 -3 -1 -8 11 -7 14 -82
4 -82 -3 0 -5 -11 -4 -25 2 -18 -2 -25 -13 -25 -15 0 -15 -2 -2 -10 8 -5 10
-10 4 -10 -6 0 -10 -15 -9 -32 1 -18 -2 -41 -7 -50 -6 -13 -5 -18 4 -18 9 0 9
-3 -2 -10 -8 -5 -11 -10 -5 -10 5 0 4 -5 -3 -12 -7 -7 -12 -22 -12 -35 0 -13
-5 -23 -11 -23 -5 0 -7 -4 -4 -10 3 -5 1 -10 -6 -10 -7 0 -9 -3 -6 -7 4 -3 2
-12 -4 -20 -9 -9 -8 -13 0 -13 7 0 1 -18 -13 -44 -13 -24 -22 -47 -19 -50 4
-3 1 -6 -5 -6 -7 0 -12 -6 -12 -13 0 -7 -9 -30 -21 -51 -11 -21 -18 -40 -16
-43 3 -2 -6 -15 -19 -28 -13 -13 -24 -33 -24 -45 0 -11 -5 -20 -12 -20 -6 0
-8 -3 -5 -6 8 -8 -17 -44 -67 -98 -19 -21 -35 -42 -34 -45 2 -20 -3 -31 -12
-26 -5 3 -10 0 -10 -8 0 -8 -21 -36 -47 -63 -27 -27 -47 -52 -46 -56 2 -5 -1
-8 -6 -8 -5 0 -57 -47 -115 -105 -58 -58 -106 -104 -106 -101 0 2 -17 -11 -37
-30 -20 -19 -38 -32 -40 -30 -2 2 -18 -9 -35 -25 -18 -15 -45 -31 -60 -35 -16
-3 -32 -12 -35 -20 -3 -8 -12 -14 -20 -14 -17 0 -65 -35 -58 -42 3 -3 -10 -5
-29 -5 -20 0 -42 -8 -57 -21 -12 -12 -25 -22 -28 -23 -31 -4 -45 -10 -52 -21
-5 -7 -9 -9 -9 -4 0 4 -11 1 -24 -8 -18 -11 -27 -12 -32 -5 -5 8 -10 6 -16 -5
-5 -9 -13 -14 -19 -11 -5 4 -9 2 -9 -4 0 -6 -17 -13 -37 -16 -21 -3 -46 -11
-57 -16 -14 -8 -16 -8 -10 3 6 10 5 10 -7 2 -8 -6 -22 -10 -31 -9 -10 2 -18
-1 -18 -6 0 -6 -4 -7 -10 -4 -5 3 -10 1 -10 -6 0 -7 -10 -9 -25 -7 -14 3 -25
2 -25 -1 0 -4 -21 -6 -47 -5 -27 1 -54 -3 -62 -10 -12 -9 -13 -8 -6 3 6 11 5
12 -6 5 -19 -12 -361 -14 -376 -2 -7 5 -14 5 -17 -1 -7 -10 -25 -9 -43 2 -7 5
-17 6 -22 2 -5 -3 -12 -2 -15 3 -3 5 -21 7 -40 6 -22 -2 -36 2 -40 11 -3 8
-12 12 -21 9 -8 -3 -15 -2 -15 3 0 5 -9 9 -20 10 -13 1 -18 -2 -13 -10 4 -7 1
-7 -10 1 -9 8 -20 11 -26 8 -5 -4 -15 0 -23 7 -7 8 -28 14 -46 15 -19 0 -39 5
-46 11 -7 6 -21 12 -32 15 -41 9 -64 19 -64 28 0 5 -4 7 -8 4 -5 -3 -30 6 -57
19 -27 14 -54 25 -62 25 -7 0 -13 5 -13 11 0 5 -4 8 -9 5 -5 -4 -23 5 -40 20
-17 14 -35 23 -40 20 -5 -4 -17 4 -26 16 -8 13 -19 23 -23 23 -4 0 -6 3 -5 6
1 4 -9 10 -24 14 -14 3 -45 19 -67 34 -57 39 -272 252 -268 265 2 6 1 8 -3 4
-9 -8 -65 44 -58 55 2 4 0 7 -6 7 -16 0 -80 72 -103 115 -12 22 -20 41 -19 43
5 9 -1 22 -9 20 -6 -2 -18 11 -28 27 -9 17 -20 32 -23 35 -6 5 -16 30 -17 43
-1 4 -8 15 -17 23 -8 9 -15 22 -15 31 0 8 -9 26 -20 40 -11 14 -20 33 -20 42
0 10 -6 23 -12 30 -11 11 -10 12 2 6 8 -5 5 3 -8 17 -12 13 -19 27 -16 31 3 3
-1 18 -9 34 -15 27 -27 57 -33 78 -19 74 -21 95 -10 106 8 9 8 10 0 6 -7 -4
-15 0 -18 9 -4 10 -2 13 7 9 6 -4 4 0 -6 8 -11 9 -18 31 -20 61 -1 25 -6 46
-11 46 -5 0 -3 7 4 15 7 8 9 15 4 15 -5 0 -10 34 -12 76 -1 42 -5 80 -8 85 -3
5 -2 9 3 9 4 0 7 68 7 150 -1 107 1 150 10 150 6 0 4 5 -4 10 -8 5 -10 10 -4
10 7 0 12 26 13 72 1 39 6 77 12 84 11 13 21 50 21 77 -1 9 3 17 8 17 4 0 11
19 15 43 4 23 12 51 18 62 6 11 11 27 12 36 1 10 9 25 19 34 11 11 15 27 12
46 -3 18 0 28 7 26 7 -1 10 7 9 18 -2 11 -1 17 4 13 4 -4 12 0 19 9 9 13 14
13 20 3 6 -9 4 -11 -5 -5 -9 6 -11 4 -6 -4 5 -7 15 -10 23 -7 8 3 12 2 9 -3
-3 -5 1 -14 9 -21 8 -7 15 -10 15 -6 0 6 30 -17 66 -51 12 -13 28 -24 35 -25
8 -2 35 -25 61 -51 26 -27 57 -49 67 -50 11 0 17 -5 15 -9 -3 -5 -11 -5 -17
-1 -7 3 -4 -3 7 -15 16 -19 36 -22 36 -6 0 3 -4 3 -9 -1 -5 -3 -12 -1 -16 5
-3 5 1 10 10 10 9 0 19 -9 22 -20 3 -11 11 -20 18 -20 6 0 37 -27 68 -60 30
-33 60 -60 66 -60 6 0 11 -5 11 -11 0 -5 17 -26 38 -44 27 -26 38 -31 40 -20
2 8 8 15 13 15 6 0 1 13 -10 29 -12 16 -21 34 -21 40 0 6 -4 11 -10 11 -5 0
-10 7 -10 15 0 8 -4 15 -10 15 -5 0 -10 9 -10 21 0 11 -4 17 -10 14 -5 -3 -10
3 -10 15 0 13 -4 19 -12 14 -7 -4 -8 -3 -4 5 4 6 1 18 -6 26 -30 34 -38 45
-38 56 0 7 -12 24 -27 39 -40 38 -70 75 -56 66 9 -5 11 -2 7 8 -3 9 -10 13
-15 10 -5 -3 -9 0 -9 6 0 6 -4 8 -10 5 -5 -3 -7 0 -5 8 7 16 -29 60 -40 49 -5
-4 -6 -2 -2 3 3 6 -3 28 -13 50 -11 22 -19 34 -20 28 0 -7 -4 -13 -10 -13 -5
0 -6 8 -3 17 5 12 2 15 -10 10 -12 -4 -15 -1 -12 14 3 15 0 19 -10 15 -10 -3
-12 0 -8 11 5 12 3 14 -7 8 -10 -6 -12 -4 -7 8 4 11 1 17 -9 17 -8 0 -12 5 -9
10 3 6 1 10 -6 10 -7 0 -10 3 -6 6 8 8 -16 33 -25 27 -5 -2 -8 3 -8 11 0 9 -4
16 -9 16 -5 0 -19 19 -30 43 -12 23 -19 33 -16 23 4 -16 3 -17 -9 -7 -8 7 -12
19 -9 27 3 8 -1 14 -10 14 -9 0 -19 5 -23 12 -4 7 -3 8 4 4 8 -5 10 -2 6 8 -3
9 -10 13 -15 10 -5 -3 -9 5 -9 16 0 16 -4 20 -16 16 -8 -3 -12 -2 -9 4 3 6 1
10 -6 10 -6 0 -9 8 -6 19 3 13 0 18 -8 15 -7 -3 -16 0 -21 7 -4 8 -3 10 4 5 7
-4 12 -5 12 -1 0 3 -11 10 -25 15 -22 8 -31 27 -26 54 1 5 -5 3 -14 -4 -13
-11 -15 -10 -9 4 4 11 -1 19 -17 25 -13 4 -23 11 -21 15 5 14 1 27 -7 21 -12
-7 -33 29 -24 39 3 3 -1 6 -9 6 -16 0 -32 26 -23 39 2 5 -6 12 -18 18 -17 7
-26 5 -39 -9z m550 -663 c-3 -3 -9 2 -12 12 -6 14 -5 15 5 6 7 -7 10 -15 7
-18z"/>
<path d="M3500 5613 c0 -6 8 -17 18 -24 16 -13 16 -13 2 6 -8 11 -16 22 -17
24 -2 2 -3 0 -3 -6z"/>
</g>
</svg>
